{
    "accessors" : [
        {
            "bufferView" : 0, 
            "componentType" : 5121, 
            "count" : 276, 
            "max" : [
                203
            ], 
            "min" : [
                0
            ], 
            "type" : "SCALAR"
        }, 
        {
            "bufferView" : 1, 
            "componentType" : 5126, 
            "count" : 204, 
            "max" : [
                1.0, 
                1.0, 
                6.6446356773376465
            ], 
            "min" : [
                -1.0, 
                -1.0, 
                0.0
            ], 
            "type" : "VEC3"
        }, 
        {
            "bufferView" : 2, 
            "componentType" : 5126, 
            "count" : 204, 
            "max" : [
                1.0, 
                1.0, 
                1.0
            ], 
            "min" : [
                -1.0, 
                -1.0, 
                -1.0
            ], 
            "type" : "VEC3"
        }, 
        {
            "bufferView" : 3, 
            "componentType" : 5126, 
            "count" : 204, 
            "max" : [
                0.0, 
                1.0, 
                2.7606074581854045e-07, 
                1.0
            ], 
            "min" : [
                -1.0, 
                -1.0, 
                -1.3859747127753508e-07, 
                1.0
            ], 
            "type" : "VEC4"
        }, 
        {
            "bufferView" : 4, 
            "componentType" : 5126, 
            "count" : 204, 
            "max" : [
                1.0, 
                1.0
            ], 
            "min" : [
                0.0, 
                0.0
            ], 
            "type" : "VEC2"
        }
    ], 
    "asset" : {
        "generator" : "Khronos Blender glTF 2.0 exporter", 
        "version" : "2.0"
    }, 
    "bufferViews" : [
        {
            "buffer" : 0, 
            "byteLength" : 276, 
            "byteOffset" : 0, 
            "target" : 34963
        }, 
        {
            "buffer" : 0, 
            "byteLength" : 2448, 
            "byteOffset" : 276, 
            "target" : 34962
        }, 
        {
            "buffer" : 0, 
            "byteLength" : 2448, 
            "byteOffset" : 2724, 
            "target" : 34962
        }, 
        {
            "buffer" : 0, 
            "byteLength" : 3264, 
            "byteOffset" : 5172, 
            "target" : 34962
        }, 
        {
            "buffer" : 0, 
            "byteLength" : 1632, 
            "byteOffset" : 8436, 
            "target" : 34962
        }
    ], 
    "buffers" : [
        {
            "byteLength" : 10068, 
            "uri" : "animation.bin"
        }
    ], 
    "images" : [
        {
            "uri" : "stone.png"
        }
    ], 
    "materials" : [
        {
            "name" : "Material.001", 
            "pbrMetallicRoughness" : {
                "baseColorFactor" : [
                    0.2159850299358368, 
                    1.0, 
                    0.38167333602905273, 
                    1.0
                ], 
                "baseColorTexture" : {
                    "index" : 0
                }, 
                "metallicFactor" : 0.4000000059604645, 
                "roughnessFactor" : 0.6000000238418579
            }
        }
    ], 
    "meshes" : [
        {
            "name" : "Plane", 
            "primitives" : [
                {
                    "attributes" : {
                        "NORMAL" : 2, 
                        "POSITION" : 1, 
                        "TANGENT" : 3, 
                        "TEXCOORD_0" : 4
                    }, 
                    "indices" : 0, 
                    "material" : 0
                }
            ]
        }
    ], 
    "nodes" : [
        {
            "mesh" : 0, 
            "name" : "Plane"
        }
    ], 
    "samplers" : [
        {}
    ], 
    "scene" : 0, 
    "scenes" : [
        {
            "name" : "Scene", 
            "nodes" : [
                0
            ]
        }
    ], 
    "textures" : [
        {
            "sampler" : 0, 
            "source" : 0
        }
    ]
}
