{"accessors":[{"bufferView":0,"componentType":5123,"count":2880,"max":[2879],"min":[0],"type":"SCALAR"},{"bufferView":1,"componentType":5126,"count":2880,"max":[1.000000238418579,1.0,1.0000003576278687],"min":[-0.9999998211860657,-1.0,-0.9999991655349731],"type":"VEC3"},{"bufferView":2,"componentType":5126,"count":2880,"max":[0.9904383420944214,0.99513840675354,0.9904382824897766],"min":[-0.9904382228851318,-0.99513840675354,-0.9904387593269348],"type":"VEC3"},{"bufferView":3,"componentType":5126,"count":2880,"max":[0.9969950914382935,0.679046094417572,0.8974925875663757,1.0],"min":[-0.9806984663009644,-0.9951883554458618,-0.9974741339683533,1.0],"type":"VEC4"},{"bufferView":4,"componentType":5126,"count":2880,"max":[1.0,1.0],"min":[0.0,0.0],"type":"VEC2"}],"asset":{"generator":"Khronos Blender glTF 2.0 exporter","version":"2.0"},"bufferViews":[{"buffer":0,"byteLength":5760,"byteOffset":0,"target":34963},{"buffer":0,"byteLength":34560,"byteOffset":5760,"target":34962},{"buffer":0,"byteLength":34560,"byteOffset":40320,"target":34962},{"buffer":0,"byteLength":46080,"byteOffset":74880,"target":34962},{"buffer":0,"byteLength":23040,"byteOffset":120960,"target":34962}],"buffers":[{"byteLength":144000,"uri":"data:application/octet-stream;base64,"}],"cameras":[{"name":"Camera","perspective":{"aspectRatio":1.7777777777777777,"yfov":0.5033799372418416,"zfar":100.0,"znear":0.10000000149011612},"type":"perspective"}],"meshes":[{"name":"Sphere","primitives":[{"attributes":{"NORMAL":2,"POSITION":1,"TANGENT":3,"TEXCOORD_0":4},"indices":0}]}],"nodes":[{"camera":0,"name":"Correction_Camera","rotation":[-0.7071067690849304,-0.0,0.0,0.7071067690849304]},{"children":[0],"name":"Camera","rotation":[0.483536034822464,0.33687159419059753,-0.20870360732078552,0.7804827094078064],"translation":[7.481131553649902,5.34366512298584,6.5076398849487305]},{"name":"Lamp","rotation":[0.16907575726509094,0.7558802962303162,-0.27217137813568115,0.570947527885437],"scale":[1.0,1.0,0.9999999403953552],"translation":[4.076245307922363,5.903861999511719,-1.0054539442062378]},{"mesh":0,"name":"Sphere"}],"scene":0,"scenes":[{"name":"Scene","nodes":[3,2,1]}]}
