{"accessors":[{"bufferView":0,"componentType":5121,"count":6,"max":[5],"min":[0],"type":"SCALAR"},{"bufferView":1,"componentType":5126,"count":6,"max":[1.0,0.0,1.0],"min":[-1.0,0.0,-1.0],"type":"VEC3"},{"bufferView":2,"componentType":5126,"count":6,"max":[-0.0,1.0,-0.0],"min":[-0.0,1.0,-0.0],"type":"VEC3"},{"bufferView":3,"componentType":5126,"count":6,"max":[-1.2914341596115264e-07,0.0,-1.0,1.0],"min":[-1.390775139498146e-07,0.0,-1.0,1.0],"type":"VEC4"},{"bufferView":4,"componentType":5126,"count":6,"max":[1.0,1.0],"min":[0.0,0.0],"type":"VEC2"}],"asset":{"generator":"Khronos Blender glTF 2.0 exporter","version":"2.0"},"bufferViews":[{"buffer":0,"byteLength":6,"byteOffset":0,"target":34963},{"buffer":0,"byteLength":72,"byteOffset":8,"target":34962},{"buffer":0,"byteLength":72,"byteOffset":80,"target":34962},{"buffer":0,"byteLength":96,"byteOffset":152,"target":34962},{"buffer":0,"byteLength":48,"byteOffset":248,"target":34962}],"buffers":[{"byteLength":296,"uri":"data:application/octet-stream;base64,"}],"cameras":[{"name":"Camera","perspective":{"aspectRatio":1.7777777777777777,"yfov":0.5033799372418416,"zfar":100.0,"znear":0.10000000149011612},"type":"perspective"}],"materials":[{"name":"Material.001","pbrMetallicRoughness":{"baseColorFactor":[0.6400000190734865,0.6400000190734865,0.6400000190734865,1.0],"metallicFactor":0.0}}],"meshes":[{"name":"Plane","primitives":[{"attributes":{"NORMAL":2,"POSITION":1,"TANGENT":3,"TEXCOORD_0":4},"indices":0,"material":0}]}],"nodes":[{"camera":0,"name":"Correction_Camera","rotation":[-0.7071067690849304,-0.0,0.0,0.7071067690849304]},{"children":[0],"name":"Camera","rotation":[0.483536034822464,0.33687159419059753,-0.20870360732078552,0.7804827094078064],"translation":[7.481131553649902,5.34366512298584,6.5076398849487305]},{"name":"Lamp","rotation":[0.16907575726509094,0.7558802962303162,-0.27217137813568115,0.570947527885437],"scale":[1.0,1.0,0.9999999403953552],"translation":[4.076245307922363,5.903861999511719,-1.0054539442062378]},{"mesh":0,"name":"Plane"}],"scene":0,"scenes":[{"name":"Scene","nodes":[3,2,1]}]}
